<svg width="62" height="62" viewBox="0 0 62 62" fill="none" xmlns="http://www.w3.org/2000/svg">
<g filter="url(#filter0_d_77_4367)">
<path d="M7 15C7 10.5817 10.5817 7 15 7H47C51.4183 7 55 10.5817 55 15V47C55 51.4183 51.4183 55 47 55H15C10.5817 55 7 51.4183 7 47V15Z" fill="#97D092"/>
<path fill-rule="evenodd" clip-rule="evenodd" d="M25.6692 21.0706C29.2643 20.7996 32.8753 20.8174 36.4676 21.1238L38.6325 21.3084C40.2679 21.4479 41.5951 22.6889 41.8437 24.3113L41.9803 25.2024C42.4438 28.2263 42.4005 31.3062 41.8522 34.3159C41.5816 35.8009 40.288 36.8801 38.7785 36.8801H26.81C26.5346 36.8801 26.2636 36.9483 26.021 37.0786L20.8066 39.8809C20.4967 40.0475 20.1221 40.0389 19.8201 39.8584C19.5181 39.6778 19.3333 39.3519 19.3333 39.0001V27.6437C19.3333 24.2055 21.9831 21.3484 25.4115 21.09L25.6692 21.0706ZM25.6666 27.6667C24.7461 27.6667 23.9999 28.4129 23.9999 29.3334C23.9999 30.2539 24.7461 31.0001 25.6666 31.0001C26.5871 31.0001 27.3333 30.2539 27.3333 29.3334C27.3333 28.4129 26.5871 27.6667 25.6666 27.6667ZM30.9999 27.6667C30.0794 27.6667 29.3333 28.4129 29.3333 29.3334C29.3333 30.2539 30.0794 31.0001 30.9999 31.0001C31.9204 31.0001 32.6666 30.2539 32.6666 29.3334C32.6666 28.4129 31.9204 27.6667 30.9999 27.6667ZM34.6666 29.3334C34.6666 28.4129 35.4128 27.6667 36.3333 27.6667C37.2537 27.6667 37.9999 28.4129 37.9999 29.3334C37.9999 30.2539 37.2537 31.0001 36.3333 31.0001C35.4128 31.0001 34.6666 30.2539 34.6666 29.3334Z" fill="white"/>
<path d="M15 8H47V6H15V8ZM54 15V47H56V15H54ZM47 54H15V56H47V54ZM8 47V15H6V47H8ZM15 54C11.134 54 8 50.866 8 47H6C6 51.9706 10.0294 56 15 56V54ZM54 47C54 50.866 50.866 54 47 54V56C51.9706 56 56 51.9706 56 47H54ZM47 8C50.866 8 54 11.134 54 15H56C56 10.0294 51.9706 6 47 6V8ZM15 6C10.0294 6 6 10.0294 6 15H8C8 11.134 11.134 8 15 8V6Z" fill="#8EC58A"/>
</g>
<defs>
<filter id="filter0_d_77_4367" x="0" y="0" width="62" height="62" filterUnits="userSpaceOnUse" color-interpolation-filters="sRGB">
<feFlood flood-opacity="0" result="BackgroundImageFix"/>
<feColorMatrix in="SourceAlpha" type="matrix" values="0 0 0 0 0 0 0 0 0 0 0 0 0 0 0 0 0 0 127 0" result="hardAlpha"/>
<feOffset/>
<feGaussianBlur stdDeviation="3.5"/>
<feComposite in2="hardAlpha" operator="out"/>
<feColorMatrix type="matrix" values="0 0 0 0 0.556863 0 0 0 0 0.772549 0 0 0 0 0.541176 0 0 0 1 0"/>
<feBlend mode="normal" in2="BackgroundImageFix" result="effect1_dropShadow_77_4367"/>
<feBlend mode="normal" in="SourceGraphic" in2="effect1_dropShadow_77_4367" result="shape"/>
</filter>
</defs>
</svg>
