<svg width="22" height="24" viewBox="0 0 22 24" fill="none" xmlns="http://www.w3.org/2000/svg">
<path d="M20.3333 18.9997H19.1667V17.833C19.1667 17.5236 19.0438 17.2268 18.825 17.008C18.6062 16.7893 18.3094 16.6663 18 16.6663C17.6906 16.6663 17.3938 16.7893 17.175 17.008C16.9562 17.2268 16.8333 17.5236 16.8333 17.833V18.9997H15.6667C15.3572 18.9997 15.0605 19.1226 14.8417 19.3414C14.6229 19.5602 14.5 19.8569 14.5 20.1663C14.5 20.4758 14.6229 20.7725 14.8417 20.9913C15.0605 21.2101 15.3572 21.333 15.6667 21.333H16.8333V22.4997C16.8333 22.8091 16.9562 23.1058 17.175 23.3246C17.3938 23.5434 17.6906 23.6663 18 23.6663C18.3094 23.6663 18.6062 23.5434 18.825 23.3246C19.0438 23.1058 19.1667 22.8091 19.1667 22.4997V21.333H20.3333C20.6428 21.333 20.9395 21.2101 21.1583 20.9913C21.3771 20.7725 21.5 20.4758 21.5 20.1663C21.5 19.8569 21.3771 19.5602 21.1583 19.3414C20.9395 19.1226 20.6428 18.9997 20.3333 18.9997ZM12.1667 21.333H4C3.69058 21.333 3.39383 21.2101 3.17504 20.9913C2.95625 20.7725 2.83333 20.4758 2.83333 20.1663V3.83301C2.83333 3.52359 2.95625 3.22684 3.17504 3.00805C3.39383 2.78926 3.69058 2.66634 4 2.66634H9.83333V6.16634C9.83333 7.0946 10.2021 7.98484 10.8585 8.64122C11.5148 9.29759 12.4051 9.66634 13.3333 9.66634H16.8333V13.1663C16.8333 13.4758 16.9562 13.7725 17.175 13.9913C17.3938 14.2101 17.6906 14.333 18 14.333C18.3094 14.333 18.6062 14.2101 18.825 13.9913C19.0438 13.7725 19.1667 13.4758 19.1667 13.1663V8.49967C19.1667 8.49967 19.1667 8.49967 19.1667 8.42967C19.1545 8.3225 19.1311 8.21691 19.0967 8.11467V8.00967C19.0406 7.88972 18.9657 7.77945 18.875 7.68301L11.875 0.683008C11.7786 0.59226 11.6683 0.517436 11.5483 0.461341C11.5097 0.454585 11.4703 0.454585 11.4317 0.461341C11.3182 0.400678 11.1963 0.357417 11.07 0.333008H4C3.07174 0.333008 2.1815 0.701757 1.52513 1.35813C0.868749 2.01451 0.5 2.90475 0.5 3.83301V20.1663C0.5 21.0946 0.868749 21.9848 1.52513 22.6412C2.1815 23.2976 3.07174 23.6663 4 23.6663H12.1667C12.4761 23.6663 12.7728 23.5434 12.9916 23.3246C13.2104 23.1058 13.3333 22.8091 13.3333 22.4997C13.3333 22.1903 13.2104 21.8935 12.9916 21.6747C12.7728 21.4559 12.4761 21.333 12.1667 21.333ZM12.1667 4.31134L15.1883 7.33301H13.3333C13.0239 7.33301 12.7272 7.21009 12.5084 6.9913C12.2896 6.77251 12.1667 6.47576 12.1667 6.16634V4.31134ZM6.33333 7.33301C6.02391 7.33301 5.72717 7.45592 5.50838 7.67472C5.28958 7.89351 5.16667 8.19026 5.16667 8.49967C5.16667 8.80909 5.28958 9.10584 5.50838 9.32463C5.72717 9.54342 6.02391 9.66634 6.33333 9.66634H7.5C7.80942 9.66634 8.10616 9.54342 8.32496 9.32463C8.54375 9.10584 8.66667 8.80909 8.66667 8.49967C8.66667 8.19026 8.54375 7.89351 8.32496 7.67472C8.10616 7.45592 7.80942 7.33301 7.5 7.33301H6.33333ZM12.1667 16.6663H6.33333C6.02391 16.6663 5.72717 16.7893 5.50838 17.008C5.28958 17.2268 5.16667 17.5236 5.16667 17.833C5.16667 18.1424 5.28958 18.4392 5.50838 18.658C5.72717 18.8768 6.02391 18.9997 6.33333 18.9997H12.1667C12.4761 18.9997 12.7728 18.8768 12.9916 18.658C13.2104 18.4392 13.3333 18.1424 13.3333 17.833C13.3333 17.5236 13.2104 17.2268 12.9916 17.008C12.7728 16.7893 12.4761 16.6663 12.1667 16.6663ZM13.3333 11.9997H6.33333C6.02391 11.9997 5.72717 12.1226 5.50838 12.3414C5.28958 12.5602 5.16667 12.8569 5.16667 13.1663C5.16667 13.4758 5.28958 13.7725 5.50838 13.9913C5.72717 14.2101 6.02391 14.333 6.33333 14.333H13.3333C13.6428 14.333 13.9395 14.2101 14.1583 13.9913C14.3771 13.7725 14.5 13.4758 14.5 13.1663C14.5 12.8569 14.3771 12.5602 14.1583 12.3414C13.9395 12.1226 13.6428 11.9997 13.3333 11.9997Z" fill="white"/>
</svg>
