<svg width="54" height="54" viewBox="0 0 54 54" fill="none" xmlns="http://www.w3.org/2000/svg">
<g filter="url(#filter0_d_61_4295)">
<rect x="7" y="7" width="40" height="40" rx="8" fill="#A6D89A"/>
<path d="M26.9999 15.3333C20.5833 15.3333 15.3333 20.5833 15.3333 27C15.3333 33.4167 20.5833 38.6667 26.9999 38.6667C33.4166 38.6667 38.6666 33.4167 38.6666 27C38.6666 20.5833 33.4166 15.3333 26.9999 15.3333ZM31.8999 25.0167L26.2999 30.6167C25.8333 31.0833 25.1333 31.0833 24.6666 30.6167L22.0999 28.05C21.6333 27.5833 21.6333 26.8833 22.0999 26.4167C22.5666 25.95 23.2666 25.95 23.7333 26.4167L25.4833 28.1667L30.2666 23.3833C30.7333 22.9167 31.4333 22.9167 31.8999 23.3833C32.3666 23.85 32.3666 24.55 31.8999 25.0167Z" fill="white"/>
<rect x="7.5" y="7.5" width="39" height="39" rx="7.5" stroke="#9ADE89"/>
</g>
<defs>
<filter id="filter0_d_61_4295" x="0" y="0" width="54" height="54" filterUnits="userSpaceOnUse" color-interpolation-filters="sRGB">
<feFlood flood-opacity="0" result="BackgroundImageFix"/>
<feColorMatrix in="SourceAlpha" type="matrix" values="0 0 0 0 0 0 0 0 0 0 0 0 0 0 0 0 0 0 127 0" result="hardAlpha"/>
<feOffset/>
<feGaussianBlur stdDeviation="3.5"/>
<feComposite in2="hardAlpha" operator="out"/>
<feColorMatrix type="matrix" values="0 0 0 0 0.65098 0 0 0 0 0.847059 0 0 0 0 0.603922 0 0 0 1 0"/>
<feBlend mode="normal" in2="BackgroundImageFix" result="effect1_dropShadow_61_4295"/>
<feBlend mode="normal" in="SourceGraphic" in2="effect1_dropShadow_61_4295" result="shape"/>
</filter>
</defs>
</svg>
