<svg fill="none" xmlns="http://www.w3.org/2000/svg">
<path fill-rule="evenodd" clip-rule="evenodd" d="M18.5227 5.97725C18.7424 6.19692 18.7424 6.55308 18.5227 6.77275L13.2727 12.0227C13.0531 12.2424 12.6969 12.2424 12.4773 12.0227L9.47725 9.02275C9.25758 8.80308 9.25758 8.44692 9.47725 8.22725C9.69692 8.00758 10.0531 8.00758 10.2727 8.22725L12.875 10.8295L17.7273 5.97725C17.9469 5.75758 18.3031 5.75758 18.5227 5.97725Z" fill="#0034EC"/>
<path fill-rule="evenodd" clip-rule="evenodd" d="M13.5227 5.97725C13.7424 6.19692 13.7424 6.55308 13.5227 6.77275L8.27275 12.0227C8.05308 12.2424 7.69692 12.2424 7.47725 12.0227L4.47725 9.02275C4.25758 8.80308 4.25758 8.44692 4.47725 8.22725C4.69692 8.00758 5.05308 8.00758 5.27275 8.22725L7.875 10.8295L12.7273 5.97725C12.9469 5.75758 13.3031 5.75758 13.5227 5.97725Z" fill="#0034EC"/>
</svg>
