<svg width="62" height="62" viewBox="0 0 62 62" fill="none" xmlns="http://www.w3.org/2000/svg">
<g filter="url(#filter0_d_77_4415)">
<path d="M7 15C7 10.5817 10.5817 7 15 7H47C51.4183 7 55 10.5817 55 15V47C55 51.4183 51.4183 55 47 55H15C10.5817 55 7 51.4183 7 47V15Z" fill="#D1A0E2"/>
<path fill-rule="evenodd" clip-rule="evenodd" d="M32.3334 19.0001C32.3334 18.2637 31.7365 17.6667 31.0001 17.6667C30.2637 17.6667 29.6667 18.2637 29.6667 19.0001V20.0001H28.9235C25.9568 20.0001 23.5013 22.3068 23.3161 25.2677L23.0214 29.979C22.9091 31.7753 22.306 33.5063 21.278 34.9835C20.349 36.3183 21.176 38.1617 22.7906 38.3555L27.3334 38.9006V40.3334C27.3334 42.3585 28.975 44.0001 31.0001 44.0001C33.0251 44.0001 34.6667 42.3585 34.6667 40.3334V38.9006L39.2096 38.3555C40.8242 38.1617 41.6511 36.3183 40.7222 34.9835C39.6941 33.5063 39.0911 31.7753 38.9787 29.979L38.684 25.2677C38.4988 22.3068 36.0434 20.0001 33.0766 20.0001H32.3334V19.0001ZM29.3334 40.3334C29.3334 41.2539 30.0796 42.0001 31.0001 42.0001C31.9206 42.0001 32.6667 41.2539 32.6667 40.3334V39.3334H29.3334V40.3334Z" fill="white"/>
<path d="M15 8H47V6H15V8ZM54 15V47H56V15H54ZM47 54H15V56H47V54ZM8 47V15H6V47H8ZM15 54C11.134 54 8 50.866 8 47H6C6 51.9706 10.0294 56 15 56V54ZM54 47C54 50.866 50.866 54 47 54V56C51.9706 56 56 51.9706 56 47H54ZM47 8C50.866 8 54 11.134 54 15H56C56 10.0294 51.9706 6 47 6V8ZM15 6C10.0294 6 6 10.0294 6 15H8C8 11.134 11.134 8 15 8V6Z" fill="#C99DD8"/>
</g>
<defs>
<filter id="filter0_d_77_4415" x="0" y="0" width="62" height="62" filterUnits="userSpaceOnUse" color-interpolation-filters="sRGB">
<feFlood flood-opacity="0" result="BackgroundImageFix"/>
<feColorMatrix in="SourceAlpha" type="matrix" values="0 0 0 0 0 0 0 0 0 0 0 0 0 0 0 0 0 0 127 0" result="hardAlpha"/>
<feOffset/>
<feGaussianBlur stdDeviation="3.5"/>
<feComposite in2="hardAlpha" operator="out"/>
<feColorMatrix type="matrix" values="0 0 0 0 0.819608 0 0 0 0 0.627451 0 0 0 0 0.886275 0 0 0 1 0"/>
<feBlend mode="normal" in2="BackgroundImageFix" result="effect1_dropShadow_77_4415"/>
<feBlend mode="normal" in="SourceGraphic" in2="effect1_dropShadow_77_4415" result="shape"/>
</filter>
</defs>
</svg>
