<svg width="18" height="18" viewBox="0 0 18 18" fill="none" xmlns="http://www.w3.org/2000/svg">
<path d="M17.1317 2.98962C17.7175 2.40383 17.7175 1.45408 17.1317 0.868295C16.5459 0.282508 15.5962 0.282508 15.0104 0.868295L8.99999 6.87869L2.98959 0.868296C2.4038 0.28251 1.45405 0.282509 0.868268 0.868296C0.282481 1.45408 0.282482 2.40383 0.868268 2.98962L6.87866 9.00001L0.868249 15.0104C0.282463 15.5962 0.282462 16.546 0.868249 17.1318C1.45404 17.7175 2.40378 17.7175 2.98957 17.1318L8.99999 11.1213L15.0104 17.1318C15.5962 17.7175 16.5459 17.7175 17.1317 17.1318C17.7175 16.546 17.7175 15.5962 17.1317 15.0104L11.1213 9.00001L17.1317 2.98962Z" fill="black"/>
</svg>
