<svg width="20" height="20" viewBox="0 0 20 20" fill="none" xmlns="http://www.w3.org/2000/svg">
<path d="M7.70964 2.5C7.70964 2.15482 7.98946 1.875 8.33464 1.875H11.668C12.0131 1.875 12.293 2.15482 12.293 2.5V3.125H15.8346C16.1798 3.125 16.4596 3.40482 16.4596 3.75C16.4596 4.09518 16.1798 4.375 15.8346 4.375H4.16797C3.82279 4.375 3.54297 4.09518 3.54297 3.75C3.54297 3.40482 3.82279 3.125 4.16797 3.125H7.70964V2.5Z" fill="#6F6F6F"/>
<path fill-rule="evenodd" clip-rule="evenodd" d="M5.20122 6.62065C5.22466 6.40964 5.40302 6.25 5.61533 6.25H14.3873C14.5996 6.25 14.7779 6.40964 14.8014 6.62065L14.9682 8.12178C15.2688 10.8276 15.2688 13.5584 14.9682 16.2642L14.9518 16.412C14.8423 17.3975 14.0785 18.1833 13.0965 18.3207C11.043 18.6082 8.95955 18.6082 6.90609 18.3207C5.92411 18.1833 5.16034 17.3975 5.05084 16.412L5.03442 16.2642C4.73378 13.5584 4.73378 10.8276 5.03442 8.12177L5.20122 6.62065ZM8.95964 9.49999C8.95964 9.15482 8.67981 8.87499 8.33464 8.87499C7.98946 8.87499 7.70964 9.15482 7.70964 9.49999L7.70964 15.3333C7.70964 15.6785 7.98946 15.9583 8.33464 15.9583C8.67981 15.9583 8.95964 15.6785 8.95964 15.3333L8.95964 9.49999ZM12.293 9.49999C12.293 9.15482 12.0131 8.87499 11.668 8.87499C11.3228 8.87499 11.043 9.15482 11.043 9.49999V15.3333C11.043 15.6785 11.3228 15.9583 11.668 15.9583C12.0131 15.9583 12.293 15.6785 12.293 15.3333V9.49999Z" fill="#6F6F6F"/>
</svg>
