<svg width="54" height="54" viewBox="0 0 54 54" fill="none" xmlns="http://www.w3.org/2000/svg">
<g filter="url(#filter0_d_84_4356)">
<rect x="7" y="7" width="40" height="40" rx="8" fill="#B59AD8"/>
<path fill-rule="evenodd" clip-rule="evenodd" d="M18.5471 27C18.5471 22.3286 22.334 18.5416 27.0055 18.5416C31.6769 18.5416 35.4638 22.3286 35.4638 27C35.4638 27.0392 35.4664 27.0779 35.4714 27.1159C35.4676 27.1524 35.4662 27.1896 35.4671 27.2273C35.4742 27.5243 35.4362 27.9851 35.3386 28.4255C35.2323 28.9053 35.094 29.1809 35.013 29.2659C34.6607 29.6355 34.1761 29.8501 33.6657 29.8623C33.1553 29.8746 32.661 29.6836 32.2914 29.3314C32.0497 29.1011 31.9804 28.7632 31.9615 27.9778L31.8268 22.38C31.8152 21.8969 31.4141 21.5147 30.931 21.5263C30.4479 21.5379 30.0657 21.939 30.0773 22.4221L30.0968 23.2302C29.2555 22.5395 28.1789 22.1249 27.0054 22.1249C24.313 22.1249 22.1304 24.3075 22.1304 26.9999C22.1304 29.6923 24.313 31.8749 27.0054 31.8749C28.4922 31.8749 29.8236 31.2093 30.7178 30.1598C30.818 30.3124 30.9387 30.4597 31.0841 30.5983C31.7897 31.2707 32.7335 31.6353 33.7078 31.6118C34.6822 31.5884 35.6074 31.1788 36.2798 30.4732C36.7111 30.0206 36.9294 29.3358 37.0472 28.804C37.1738 28.2327 37.2273 27.6306 37.2166 27.1852C37.2158 27.1531 37.2133 27.1215 37.2092 27.0904C37.2122 27.0607 37.2138 27.0305 37.2138 27C37.2138 21.3621 32.6434 16.7916 27.0055 16.7916C21.3675 16.7916 16.7971 21.3621 16.7971 27C16.7971 32.6379 21.3675 37.2083 27.0055 37.2083C29.389 37.2083 31.5839 36.3903 33.3213 35.0204C33.7008 34.7212 33.7659 34.171 33.4667 33.7915C33.1675 33.4121 32.6173 33.347 32.2378 33.6462C30.798 34.7814 28.982 35.4583 27.0055 35.4583C22.334 35.4583 18.5471 31.6714 18.5471 27ZM27.0054 23.8749C25.2795 23.8749 23.8804 25.274 23.8804 26.9999C23.8804 28.7258 25.2795 30.1249 27.0054 30.1249C28.7313 30.1249 30.1304 28.7258 30.1304 26.9999C30.1304 25.274 28.7313 23.8749 27.0054 23.8749Z" fill="white" stroke="white" stroke-width="0.5" stroke-linecap="round"/>
<rect x="7.5" y="7.5" width="39" height="39" rx="7.5" stroke="#B190DB"/>
</g>
<defs>
<filter id="filter0_d_84_4356" x="0" y="0" width="54" height="54" filterUnits="userSpaceOnUse" color-interpolation-filters="sRGB">
<feFlood flood-opacity="0" result="BackgroundImageFix"/>
<feColorMatrix in="SourceAlpha" type="matrix" values="0 0 0 0 0 0 0 0 0 0 0 0 0 0 0 0 0 0 127 0" result="hardAlpha"/>
<feOffset/>
<feGaussianBlur stdDeviation="3.5"/>
<feComposite in2="hardAlpha" operator="out"/>
<feColorMatrix type="matrix" values="0 0 0 0 0.709804 0 0 0 0 0.603922 0 0 0 0 0.847059 0 0 0 1 0"/>
<feBlend mode="normal" in2="BackgroundImageFix" result="effect1_dropShadow_84_4356"/>
<feBlend mode="normal" in="SourceGraphic" in2="effect1_dropShadow_84_4356" result="shape"/>
</filter>
</defs>
</svg>
