<svg width="22" height="22" viewBox="0 0 22 22" fill="none" xmlns="http://www.w3.org/2000/svg">
<path fill-rule="evenodd" clip-rule="evenodd" d="M2.54688 11C2.54688 6.32855 6.3338 2.54163 11.0052 2.54163C15.6766 2.54163 19.4635 6.32855 19.4635 11C19.4635 11.0392 19.4661 11.0779 19.4712 11.1159C19.4674 11.1524 19.4659 11.1896 19.4668 11.2273C19.474 11.5243 19.4359 11.9851 19.3384 12.4255C19.2321 12.9053 19.0937 13.1809 19.0127 13.2659C18.6605 13.6355 18.1759 13.8501 17.6655 13.8623C17.1551 13.8746 16.6607 13.6836 16.2911 13.3314C16.0495 13.1011 15.9802 12.7632 15.9613 11.9778L15.8266 6.37998C15.815 5.89687 15.4139 5.51466 14.9308 5.52629C14.4477 5.53791 14.0655 5.93897 14.0771 6.42208L14.0965 7.23017C13.2552 6.53947 12.1786 6.12487 11.0052 6.12487C8.3128 6.12487 6.13019 8.30748 6.13019 10.9999C6.13019 13.6923 8.3128 15.8749 11.0052 15.8749C12.492 15.8749 13.8234 15.2093 14.7175 14.1598C14.8178 14.3124 14.9385 14.4597 15.0838 14.5983C15.7894 15.2707 16.7332 15.6353 17.7076 15.6118C18.682 15.5884 19.6072 15.1788 20.2796 14.4732C20.7109 14.0206 20.9291 13.3358 21.047 12.804C21.1735 12.2327 21.227 11.6306 21.2163 11.1852C21.2155 11.1531 21.213 11.1215 21.2089 11.0904C21.212 11.0607 21.2135 11.0305 21.2135 11C21.2135 5.36205 16.6431 0.791626 11.0052 0.791626C5.3673 0.791626 0.796875 5.36205 0.796875 11C0.796875 16.6379 5.3673 21.2083 11.0052 21.2083C13.3887 21.2083 15.5836 20.3903 17.3211 19.0204C17.7006 18.7212 17.7657 18.171 17.4665 17.7915C17.1672 17.4121 16.6171 17.347 16.2376 17.6462C14.7978 18.7814 12.9818 19.4583 11.0052 19.4583C6.3338 19.4583 2.54688 15.6714 2.54688 11ZM11.0052 7.87487C9.2793 7.87487 7.88019 9.27398 7.88019 10.9999C7.88019 12.7258 9.2793 14.1249 11.0052 14.1249C12.7311 14.1249 14.1302 12.7258 14.1302 10.9999C14.1302 9.27398 12.7311 7.87487 11.0052 7.87487Z" fill="#B59AD8" stroke="#B59AD8" stroke-width="0.5" stroke-linecap="round"/>
</svg>
