<svg width="29" height="35" viewBox="0 0 29 35" fill="none" xmlns="http://www.w3.org/2000/svg">
<path fill-rule="evenodd" clip-rule="evenodd" d="M5.81644 8.89801V8.67897C5.81644 4.71817 8.49941 1.25985 12.3374 0.273449C13.7561 -0.0911497 15.2439 -0.0911498 16.6626 0.273449C20.5006 1.25985 23.1836 4.71818 23.1836 8.67898V8.89801H25.9278C26.9722 8.89801 27.8585 9.66355 28.0099 10.6963L28.4097 13.4233C29.1968 18.7923 29.1968 24.2473 28.4097 29.6163C28.0296 32.2091 25.9377 34.2136 23.3298 34.4839L22.1802 34.603C17.0737 35.1323 11.9263 35.1323 6.81984 34.603L5.67019 34.4839C3.06231 34.2136 0.970411 32.2091 0.590313 29.6163C-0.196771 24.2473 -0.196771 18.7923 0.590313 13.4233L0.990075 10.6963C1.14148 9.66355 2.02784 8.89801 3.0722 8.89801H5.81644ZM13.0204 2.92783C13.991 2.67837 15.009 2.67837 15.9797 2.92783C18.6057 3.60273 20.4414 5.96896 20.4414 8.67898V8.89801H8.55862V8.67897C8.55862 5.96895 10.3943 3.60273 13.0204 2.92783ZM5.81644 11.6387V15.7498C5.81644 16.5067 6.4303 17.1202 7.18753 17.1202C7.94476 17.1202 8.55862 16.5067 8.55862 15.7498V11.6387H20.4414V15.7498C20.4414 16.5067 21.0552 17.1202 21.8125 17.1202C22.5697 17.1202 23.1836 16.5067 23.1836 15.7498V11.6387H25.3766L25.6965 13.8206C26.4449 18.9261 26.4449 24.1134 25.6965 29.219C25.4982 30.5713 24.4072 31.6168 23.0469 31.7578L21.8973 31.8769C16.9789 32.3867 12.021 32.3867 7.1027 31.8769L5.95305 31.7578C4.59285 31.6168 3.50177 30.5713 3.30352 29.219C2.55506 24.1134 2.55506 18.9261 3.30352 13.8206L3.62338 11.6387H5.81644Z" fill="white"/>
</svg>
