<svg width="21" height="23" viewBox="0 0 21 23" fill="none" xmlns="http://www.w3.org/2000/svg">
<path fill-rule="evenodd" clip-rule="evenodd" d="M3.1289 20.2561C-0.0734301 17.3131 -0.283698 12.3314 2.65925 9.12903L8.97474 2.25693C11.0457 0.00343753 14.5514 -0.144529 16.8049 1.92644C19.0584 3.99741 19.2063 7.50308 17.1354 9.75657L10.7071 16.7514C9.50812 18.056 7.47852 18.1417 6.17387 16.9427C4.86921 15.7437 4.78355 13.7141 5.98253 12.4095L12.1852 5.6601C12.5122 5.30429 13.0658 5.28093 13.4216 5.60792C13.7774 5.93492 13.8008 6.48844 13.4738 6.84426L7.27105 13.5936C6.72606 14.1867 6.765 15.1092 7.35802 15.6542C7.95104 16.1992 8.87359 16.1603 9.41858 15.5672L15.8468 8.57241C17.2638 7.03055 17.1626 4.63193 15.6207 3.21496C14.0789 1.79798 11.6802 1.89922 10.2633 3.44108L3.94777 10.3132C1.65881 12.8039 1.82235 16.6786 4.31306 18.9675C6.80376 21.2565 10.6784 21.093 12.9674 18.6023L19.0573 11.9756C19.3843 11.6198 19.9379 11.5964 20.2937 11.9234C20.6495 12.2504 20.6729 12.8039 20.3459 13.1597L14.2559 19.7864C11.313 22.9887 6.33124 23.199 3.1289 20.2561Z" fill="#343434"/>
</svg>
