<svg width="58" height="58" viewBox="0 0 58 58" fill="none" xmlns="http://www.w3.org/2000/svg">
<g filter="url(#filter0_d_205_6410)">
<path d="M5 13C5 8.58172 8.58172 5 13 5H45C49.4183 5 53 8.58172 53 13V45C53 49.4183 49.4183 53 45 53H13C8.58172 53 5 49.4183 5 45V13Z" fill="white"/>
<path fill-rule="evenodd" clip-rule="evenodd" d="M23.6692 19.0706C27.2643 18.7996 30.8753 18.8174 34.4676 19.1238L36.6325 19.3084C38.2679 19.4479 39.5951 20.6889 39.8437 22.3113L39.9803 23.2024C40.4438 26.2263 40.4005 29.3062 39.8522 32.3159C39.5816 33.8009 38.288 34.8801 36.7785 34.8801H24.81C24.5346 34.8801 24.2636 34.9483 24.021 35.0786L18.8066 37.8809C18.4967 38.0475 18.1221 38.0389 17.8201 37.8584C17.5181 37.6778 17.3333 37.3519 17.3333 37.0001V25.6437C17.3333 22.2055 19.9831 19.3484 23.4115 19.09L23.6692 19.0706ZM23.6666 25.6667C22.7461 25.6667 21.9999 26.4129 21.9999 27.3334C21.9999 28.2539 22.7461 29.0001 23.6666 29.0001C24.5871 29.0001 25.3333 28.2539 25.3333 27.3334C25.3333 26.4129 24.5871 25.6667 23.6666 25.6667ZM28.9999 25.6667C28.0794 25.6667 27.3333 26.4129 27.3333 27.3334C27.3333 28.2539 28.0794 29.0001 28.9999 29.0001C29.9204 29.0001 30.6666 28.2539 30.6666 27.3334C30.6666 26.4129 29.9204 25.6667 28.9999 25.6667ZM32.6666 27.3334C32.6666 26.4129 33.4128 25.6667 34.3333 25.6667C35.2537 25.6667 35.9999 26.4129 35.9999 27.3334C35.9999 28.2539 35.2537 29.0001 34.3333 29.0001C33.4128 29.0001 32.6666 28.2539 32.6666 27.3334Z" fill="#343434"/>
<path d="M13 6H45V4H13V6ZM52 13V45H54V13H52ZM45 52H13V54H45V52ZM6 45V13H4V45H6ZM13 52C9.13401 52 6 48.866 6 45H4C4 49.9706 8.02944 54 13 54V52ZM52 45C52 48.866 48.866 52 45 52V54C49.9706 54 54 49.9706 54 45H52ZM45 6C48.866 6 52 9.13401 52 13H54C54 8.02944 49.9706 4 45 4V6ZM13 4C8.02944 4 4 8.02944 4 13H6C6 9.13401 9.13401 6 13 6V4Z" fill="#F2F2F2"/>
</g>
<defs>
<filter id="filter0_d_205_6410" x="0" y="0" width="58" height="58" filterUnits="userSpaceOnUse" color-interpolation-filters="sRGB">
<feFlood flood-opacity="0" result="BackgroundImageFix"/>
<feColorMatrix in="SourceAlpha" type="matrix" values="0 0 0 0 0 0 0 0 0 0 0 0 0 0 0 0 0 0 127 0" result="hardAlpha"/>
<feOffset/>
<feGaussianBlur stdDeviation="2.5"/>
<feComposite in2="hardAlpha" operator="out"/>
<feColorMatrix type="matrix" values="0 0 0 0 0.783333 0 0 0 0 0.783333 0 0 0 0 0.783333 0 0 0 1 0"/>
<feBlend mode="normal" in2="BackgroundImageFix" result="effect1_dropShadow_205_6410"/>
<feBlend mode="normal" in="SourceGraphic" in2="effect1_dropShadow_205_6410" result="shape"/>
</filter>
</defs>
</svg>
