<svg width="20" height="26" viewBox="0 0 20 26" fill="none" xmlns="http://www.w3.org/2000/svg">
<path fill-rule="evenodd" clip-rule="evenodd" d="M7.3557 1.1486C9.1003 0.791125 10.8993 0.791125 12.6439 1.1486C13.3985 1.30322 13.9795 1.90725 14.1048 2.66728L14.168 3.05111C14.699 6.27308 14.699 9.56025 14.168 12.7822L14.1048 13.166C13.9795 13.9261 13.3985 14.5301 12.6439 14.6847C10.8993 15.0422 9.1003 15.0422 7.3557 14.6847C6.60109 14.5301 6.02003 13.9261 5.89478 13.166L5.83152 12.7822C5.30052 9.56025 5.30052 6.27308 5.83152 3.05111L5.89477 2.66728C6.02003 1.90725 6.60109 1.30322 7.3557 1.1486ZM12.2926 2.86298C10.7798 2.553 9.2198 2.553 7.70698 2.86298C7.66282 2.87203 7.62881 2.90738 7.62148 2.95186L7.55823 3.33568C7.05828 6.36921 7.05828 9.46412 7.55823 12.4977L7.62148 12.8815C7.62881 12.926 7.66282 12.9613 7.70698 12.9704C9.2198 13.2803 10.7798 13.2803 12.2926 12.9704C12.3367 12.9613 12.3708 12.926 12.3781 12.8815L12.4413 12.4976C12.9413 9.46412 12.9413 6.36921 12.4413 3.33568L12.3781 2.95185C12.3708 2.90738 12.3367 2.87203 12.2926 2.86298Z" fill="#343434"/>
<path d="M1.71036 11.1337C2.18883 11.0659 2.63166 11.3988 2.69946 11.8772L3.22506 15.5864C3.36706 16.5886 4.16147 17.3722 5.16548 17.5004C8.37531 17.9104 11.6243 17.9104 14.8341 17.5004C15.8381 17.3722 16.6325 16.5886 16.7745 15.5864L17.3001 11.8772C17.3679 11.3988 17.8107 11.0659 18.2892 11.1337C18.7677 11.2015 19.1006 11.6443 19.0328 12.1228L18.5072 15.8319C18.2546 17.6145 16.8416 19.0082 15.0558 19.2363C13.6672 19.4137 12.2716 19.5177 10.8748 19.5483V24.25C10.8748 24.7332 10.4831 25.125 9.99982 25.125C9.51657 25.125 9.12482 24.7332 9.12482 24.25V19.5483C7.72799 19.5177 6.33237 19.4137 4.94375 19.2363C3.15794 19.0082 1.74495 17.6145 1.49236 15.8319L0.966772 12.1228C0.898973 11.6443 1.23189 11.2015 1.71036 11.1337Z" fill="#343434"/>
</svg>
