<svg width="58" height="58" viewBox="0 0 58 58" fill="none" xmlns="http://www.w3.org/2000/svg">
<g filter="url(#filter0_d_47_4251)">
<rect x="5" y="5" width="48" height="48" rx="8" fill="#F5D9FF"/>
<path d="M36.9999 30.5733V26.3333C36.998 24.4441 36.3276 22.6166 35.1074 21.1743C33.8872 19.7321 32.196 18.7682 30.3333 18.4533V17C30.3333 16.6463 30.1928 16.3072 29.9427 16.0572C29.6927 15.8071 29.3535 15.6666 28.9999 15.6666C28.6463 15.6666 28.3072 15.8071 28.0571 16.0572C27.8071 16.3072 27.6666 16.6463 27.6666 17V18.4533C25.8038 18.7682 24.1126 19.7321 22.8924 21.1743C21.6722 22.6166 21.0018 24.4441 20.9999 26.3333V30.5733C20.2219 30.8484 19.5479 31.3574 19.0705 32.0305C18.5931 32.7037 18.3356 33.508 18.3333 34.3333V37C18.3333 37.3536 18.4737 37.6927 18.7238 37.9428C18.9738 38.1928 19.313 38.3333 19.6666 38.3333H23.8533C24.1603 39.4631 24.8306 40.4605 25.7607 41.1716C26.6908 41.8827 27.8291 42.268 28.9999 42.268C30.1707 42.268 31.309 41.8827 32.2391 41.1716C33.1692 40.4605 33.8395 39.4631 34.1466 38.3333H38.3333C38.6869 38.3333 39.026 38.1928 39.2761 37.9428C39.5261 37.6927 39.6666 37.3536 39.6666 37V34.3333C39.6643 33.508 39.4067 32.7037 38.9293 32.0305C38.4519 31.3574 37.778 30.8484 36.9999 30.5733ZM23.6666 26.3333C23.6666 24.9188 24.2285 23.5623 25.2287 22.5621C26.2289 21.5619 27.5854 21 28.9999 21C30.4144 21 31.771 21.5619 32.7712 22.5621C33.7713 23.5623 34.3333 24.9188 34.3333 26.3333V30.3333H23.6666V26.3333ZM28.9999 39.6666C28.5345 39.6638 28.078 39.5393 27.6757 39.3054C27.2734 39.0715 26.9393 38.7363 26.7066 38.3333H31.2933C31.0606 38.7363 30.7265 39.0715 30.3241 39.3054C29.9218 39.5393 29.4653 39.6638 28.9999 39.6666ZM36.9999 35.6666H20.9999V34.3333C20.9999 33.9797 21.1404 33.6405 21.3904 33.3905C21.6405 33.1404 21.9796 33 22.3333 33H35.6666C36.0202 33 36.3593 33.1404 36.6094 33.3905C36.8594 33.6405 36.9999 33.9797 36.9999 34.3333V35.6666Z" fill="#CB6DEC"/>
<rect x="5.5" y="5.5" width="47" height="47" rx="7.5" stroke="#EDBFFD"/>
</g>
<defs>
<filter id="filter0_d_47_4251" x="0" y="0" width="58" height="58" filterUnits="userSpaceOnUse" color-interpolation-filters="sRGB">
<feFlood flood-opacity="0" result="BackgroundImageFix"/>
<feColorMatrix in="SourceAlpha" type="matrix" values="0 0 0 0 0 0 0 0 0 0 0 0 0 0 0 0 0 0 127 0" result="hardAlpha"/>
<feOffset/>
<feGaussianBlur stdDeviation="2.5"/>
<feComposite in2="hardAlpha" operator="out"/>
<feColorMatrix type="matrix" values="0 0 0 0 0.824435 0 0 0 0 0.566185 0 0 0 0 0.916667 0 0 0 1 0"/>
<feBlend mode="normal" in2="BackgroundImageFix" result="effect1_dropShadow_47_4251"/>
<feBlend mode="normal" in="SourceGraphic" in2="effect1_dropShadow_47_4251" result="shape"/>
</filter>
</defs>
</svg>
