<svg width="58" height="58" viewBox="0 0 58 58" fill="none" xmlns="http://www.w3.org/2000/svg">
<g filter="url(#filter0_d_47_4250)">
<rect x="5" y="5" width="48" height="48" rx="8" fill="#DCFFD9"/>
<path d="M35.6667 22.3333H22.3334C21.9798 22.3333 21.6407 22.4738 21.3906 22.7238C21.1406 22.9739 21.0001 23.313 21.0001 23.6666C21.0001 24.0202 21.1406 24.3594 21.3906 24.6094C21.6407 24.8595 21.9798 25 22.3334 25H35.6667C36.0204 25 36.3595 24.8595 36.6096 24.6094C36.8596 24.3594 37.0001 24.0202 37.0001 23.6666C37.0001 23.313 36.8596 22.9739 36.6096 22.7238C36.3595 22.4738 36.0204 22.3333 35.6667 22.3333ZM35.6667 27.6666H22.3334C21.9798 27.6666 21.6407 27.8071 21.3906 28.0572C21.1406 28.3072 21.0001 28.6463 21.0001 29C21.0001 29.3536 21.1406 29.6927 21.3906 29.9428C21.6407 30.1928 21.9798 30.3333 22.3334 30.3333H35.6667C36.0204 30.3333 36.3595 30.1928 36.6096 29.9428C36.8596 29.6927 37.0001 29.3536 37.0001 29C37.0001 28.6463 36.8596 28.3072 36.6096 28.0572C36.3595 27.8071 36.0204 27.6666 35.6667 27.6666ZM38.3334 15.6666H19.6667C18.6059 15.6666 17.5885 16.0881 16.8383 16.8382C16.0882 17.5883 15.6667 18.6058 15.6667 19.6666V33C15.6667 34.0608 16.0882 35.0782 16.8383 35.8284C17.5885 36.5785 18.6059 37 19.6667 37H35.1201L40.0534 41.9466C40.178 42.0702 40.3258 42.168 40.4882 42.2343C40.6507 42.3007 40.8246 42.3343 41.0001 42.3333C41.175 42.3378 41.3485 42.3013 41.5067 42.2266C41.7502 42.1266 41.9587 41.9567 42.1058 41.7384C42.2529 41.5201 42.3321 41.2632 42.3334 41V19.6666C42.3334 18.6058 41.912 17.5883 41.1618 16.8382C40.4117 16.0881 39.3943 15.6666 38.3334 15.6666ZM39.6667 37.7866L36.6134 34.72C36.4888 34.5964 36.3411 34.4986 36.1786 34.4323C36.0162 34.3659 35.8422 34.3323 35.6667 34.3333H19.6667C19.3131 34.3333 18.974 34.1928 18.7239 33.9428C18.4739 33.6927 18.3334 33.3536 18.3334 33V19.6666C18.3334 19.313 18.4739 18.9739 18.7239 18.7238C18.974 18.4738 19.3131 18.3333 19.6667 18.3333H38.3334C38.687 18.3333 39.0262 18.4738 39.2762 18.7238C39.5263 18.9739 39.6667 19.313 39.6667 19.6666V37.7866Z" fill="#6EB667"/>
<rect x="5.5" y="5.5" width="47" height="47" rx="7.5" stroke="#D8FFD5"/>
</g>
<defs>
<filter id="filter0_d_47_4250" x="0" y="0" width="58" height="58" filterUnits="userSpaceOnUse" color-interpolation-filters="sRGB">
<feFlood flood-opacity="0" result="BackgroundImageFix"/>
<feColorMatrix in="SourceAlpha" type="matrix" values="0 0 0 0 0 0 0 0 0 0 0 0 0 0 0 0 0 0 127 0" result="hardAlpha"/>
<feOffset/>
<feGaussianBlur stdDeviation="2.5"/>
<feComposite in2="hardAlpha" operator="out"/>
<feColorMatrix type="matrix" values="0 0 0 0 0.532622 0 0 0 0 0.933333 0 0 0 0 0.497778 0 0 0 1 0"/>
<feBlend mode="normal" in2="BackgroundImageFix" result="effect1_dropShadow_47_4250"/>
<feBlend mode="normal" in="SourceGraphic" in2="effect1_dropShadow_47_4250" result="shape"/>
</filter>
</defs>
</svg>
