<svg width="58" height="58" viewBox="0 0 58 58" fill="none" xmlns="http://www.w3.org/2000/svg">
<g filter="url(#filter0_d_47_4273)">
<rect x="5" y="5" width="48" height="48" rx="8" fill="#FFF0D9"/>
<path d="M33.6376 28.8875C34.8631 27.9234 35.7576 26.6012 36.1967 25.105C36.6357 23.6087 36.5975 22.0129 36.0874 20.5394C35.5772 19.0659 34.6204 17.788 33.3502 16.8836C32.08 15.9792 30.5594 15.4932 29.0001 15.4932C27.4408 15.4932 25.9203 15.9792 24.65 16.8836C23.3798 17.788 22.423 19.0659 21.9129 20.5394C21.4027 22.0129 21.3645 23.6087 21.8036 25.105C22.2426 26.6012 23.1371 27.9234 24.3626 28.8875C22.2627 29.7288 20.4305 31.1242 19.0612 32.9249C17.692 34.7256 16.8371 36.8642 16.5876 39.1125C16.5696 39.2767 16.584 39.4428 16.6301 39.6014C16.6763 39.7599 16.7532 39.9078 16.8565 40.0367C17.0651 40.2969 17.3686 40.4636 17.7001 40.5C18.0316 40.5365 18.3641 40.4398 18.6243 40.2311C18.8845 40.0225 19.0512 39.7191 19.0876 39.3875C19.3621 36.944 20.5272 34.6873 22.3604 33.0485C24.1936 31.4097 26.5662 30.5038 29.0251 30.5038C31.484 30.5038 33.8567 31.4097 35.6898 33.0485C37.523 34.6873 38.6881 36.944 38.9626 39.3875C38.9966 39.6947 39.1432 39.9784 39.374 40.1838C39.6048 40.3892 39.9036 40.5019 40.2126 40.5H40.3501C40.6778 40.4623 40.9773 40.2967 41.1833 40.0391C41.3894 39.7815 41.4853 39.453 41.4501 39.125C41.1995 36.8703 40.34 34.7263 38.9637 32.9228C37.5874 31.1193 35.7463 29.7244 33.6376 28.8875ZM29.0001 28C28.0112 28 27.0445 27.7068 26.2223 27.1574C25.4 26.608 24.7592 25.8271 24.3807 24.9135C24.0023 23.9998 23.9033 22.9945 24.0962 22.0246C24.2891 21.0547 24.7653 20.1638 25.4646 19.4645C26.1638 18.7652 27.0548 18.289 28.0247 18.0961C28.9946 17.9032 29.9999 18.0022 30.9135 18.3806C31.8272 18.7591 32.6081 19.3999 33.1575 20.2222C33.7069 21.0444 34.0001 22.0111 34.0001 23C34.0001 24.3261 33.4733 25.5979 32.5357 26.5356C31.598 27.4733 30.3262 28 29.0001 28Z" fill="#DFB16C"/>
<rect x="5.5" y="5.5" width="47" height="47" rx="7.5" stroke="#FFE5BE"/>
</g>
<defs>
<filter id="filter0_d_47_4273" x="0" y="0" width="58" height="58" filterUnits="userSpaceOnUse" color-interpolation-filters="sRGB">
<feFlood flood-opacity="0" result="BackgroundImageFix"/>
<feColorMatrix in="SourceAlpha" type="matrix" values="0 0 0 0 0 0 0 0 0 0 0 0 0 0 0 0 0 0 127 0" result="hardAlpha"/>
<feOffset/>
<feGaussianBlur stdDeviation="2.5"/>
<feComposite in2="hardAlpha" operator="out"/>
<feColorMatrix type="matrix" values="0 0 0 0 1 0 0 0 0 0.858553 0 0 0 0 0.641667 0 0 0 1 0"/>
<feBlend mode="normal" in2="BackgroundImageFix" result="effect1_dropShadow_47_4273"/>
<feBlend mode="normal" in="SourceGraphic" in2="effect1_dropShadow_47_4273" result="shape"/>
</filter>
</defs>
</svg>
