<svg width="58" height="58" viewBox="0 0 58 58" fill="none" xmlns="http://www.w3.org/2000/svg">
<g filter="url(#filter0_d_205_6413)">
<path d="M5 13C5 8.58172 8.58172 5 13 5H45C49.4183 5 53 8.58172 53 13V45C53 49.4183 49.4183 53 45 53H13C8.58172 53 5 49.4183 5 45V13Z" fill="white"/>
<path fill-rule="evenodd" clip-rule="evenodd" d="M30.3334 17C30.3334 16.2636 29.7365 15.6666 29.0001 15.6666C28.2637 15.6666 27.6667 16.2636 27.6667 17V18H26.9235C23.9568 18 21.5013 20.3066 21.3161 23.2676L21.0214 27.9789C20.9091 29.7752 20.306 31.5062 19.278 32.9834C18.349 34.3181 19.176 36.1616 20.7906 36.3553L25.3334 36.9005V38.3333C25.3334 40.3583 26.975 42 29.0001 42C31.0251 42 32.6667 40.3583 32.6667 38.3333V36.9005L37.2096 36.3553C38.8242 36.1616 39.6511 34.3181 38.7222 32.9834C37.6941 31.5062 37.0911 29.7752 36.9787 27.9789L36.684 23.2676C36.4988 20.3066 34.0434 18 31.0766 18H30.3334V17ZM27.3334 38.3333C27.3334 39.2538 28.0796 40 29.0001 40C29.9206 40 30.6667 39.2538 30.6667 38.3333V37.3333H27.3334V38.3333Z" fill="#343434"/>
<path d="M13 6H45V4H13V6ZM52 13V45H54V13H52ZM45 52H13V54H45V52ZM6 45V13H4V45H6ZM13 52C9.13401 52 6 48.866 6 45H4C4 49.9706 8.02944 54 13 54V52ZM52 45C52 48.866 48.866 52 45 52V54C49.9706 54 54 49.9706 54 45H52ZM45 6C48.866 6 52 9.13401 52 13H54C54 8.02944 49.9706 4 45 4V6ZM13 4C8.02944 4 4 8.02944 4 13H6C6 9.13401 9.13401 6 13 6V4Z" fill="#F2F2F2"/>
</g>
<defs>
<filter id="filter0_d_205_6413" x="0" y="0" width="58" height="58" filterUnits="userSpaceOnUse" color-interpolation-filters="sRGB">
<feFlood flood-opacity="0" result="BackgroundImageFix"/>
<feColorMatrix in="SourceAlpha" type="matrix" values="0 0 0 0 0 0 0 0 0 0 0 0 0 0 0 0 0 0 127 0" result="hardAlpha"/>
<feOffset/>
<feGaussianBlur stdDeviation="2.5"/>
<feComposite in2="hardAlpha" operator="out"/>
<feColorMatrix type="matrix" values="0 0 0 0 0.783333 0 0 0 0 0.783333 0 0 0 0 0.783333 0 0 0 1 0"/>
<feBlend mode="normal" in2="BackgroundImageFix" result="effect1_dropShadow_205_6413"/>
<feBlend mode="normal" in="SourceGraphic" in2="effect1_dropShadow_205_6413" result="shape"/>
</filter>
</defs>
</svg>
