<svg width="21" height="21" viewBox="0 0 21 21" fill="none" xmlns="http://www.w3.org/2000/svg">
<path d="M1.83371 8.50392C4.06951 13.3735 8.04785 17.245 12.994 19.3439L13.7868 19.6971C15.6008 20.5053 17.7332 19.8913 18.8396 18.2422L19.8757 16.6979C20.2125 16.1958 20.11 15.5195 19.6394 15.1399L16.1256 12.3051C15.6094 11.8888 14.8505 11.9857 14.4557 12.5185L13.3687 13.9853C10.5794 12.6094 8.31483 10.3449 6.93893 7.55559L8.40572 6.46858C8.93849 6.07375 9.03547 5.31482 8.6191 4.79871L5.78426 1.28477C5.40469 0.814279 4.7286 0.71165 4.2265 1.04831L2.67152 2.09096C1.01212 3.20362 0.40151 5.35361 1.22836 7.17238L1.8328 8.50193L1.83371 8.50392Z" fill="#A6D89A"/>
</svg>
