<svg width="54" height="54" viewBox="0 0 54 54" fill="none" xmlns="http://www.w3.org/2000/svg">
<g filter="url(#filter0_d_61_4266)">
<rect x="7" y="7" width="40" height="40" rx="8" fill="#D89A9A"/>
<path d="M26.9999 15.3333C20.5833 15.3333 15.3333 20.5833 15.3333 27C15.3333 33.4167 20.5833 38.6667 26.9999 38.6667C33.4166 38.6667 38.6666 33.4167 38.6666 27C38.6666 20.5833 33.4166 15.3333 26.9999 15.3333ZM26.9999 32.8333C26.2999 32.8333 25.8333 32.3667 25.8333 31.6667C25.8333 30.9667 26.2999 30.5 26.9999 30.5C27.6999 30.5 28.1666 30.9667 28.1666 31.6667C28.1666 32.3667 27.6999 32.8333 26.9999 32.8333ZM28.1666 27C28.1666 27.7 27.6999 28.1667 26.9999 28.1667C26.2999 28.1667 25.8333 27.7 25.8333 27V22.3333C25.8333 21.6333 26.2999 21.1667 26.9999 21.1667C27.6999 21.1667 28.1666 21.6333 28.1666 22.3333V27Z" fill="white"/>
<rect x="7.5" y="7.5" width="39" height="39" rx="7.5" stroke="#E29090"/>
</g>
<defs>
<filter id="filter0_d_61_4266" x="0" y="0" width="54" height="54" filterUnits="userSpaceOnUse" color-interpolation-filters="sRGB">
<feFlood flood-opacity="0" result="BackgroundImageFix"/>
<feColorMatrix in="SourceAlpha" type="matrix" values="0 0 0 0 0 0 0 0 0 0 0 0 0 0 0 0 0 0 127 0" result="hardAlpha"/>
<feOffset/>
<feGaussianBlur stdDeviation="3.5"/>
<feComposite in2="hardAlpha" operator="out"/>
<feColorMatrix type="matrix" values="0 0 0 0 0.847059 0 0 0 0 0.603922 0 0 0 0 0.603922 0 0 0 1 0"/>
<feBlend mode="normal" in2="BackgroundImageFix" result="effect1_dropShadow_61_4266"/>
<feBlend mode="normal" in="SourceGraphic" in2="effect1_dropShadow_61_4266" result="shape"/>
</filter>
</defs>
</svg>
