<svg width="131" height="133" viewBox="0 0 131 133" fill="none" xmlns="http://www.w3.org/2000/svg">
<path d="M68.758 0.928589C55.2389 0.928589 40.1228 4.56835 31.4876 10.3623C20.754 17.5675 13.0845 24.6428 5.97209 42.1731C-2.49594 63.0274 -2.4959 98.2366 22.7225 119.63C41.1441 135.266 87.0497 141.617 116.576 105.479C135.165 82.749 133.345 46.2771 115.945 24.1971C102.89 7.61387 89.0367 0.928589 68.758 0.928589Z" fill="white"/>
<path d="M61.6272 133C46.4925 133 31.5063 128.283 22.1469 120.335C10.5777 110.53 3.20527 96.8623 0.828277 80.8362C-1.14017 67.6328 0.438277 53.408 5.15512 41.8202C12.119 24.6613 19.6214 17.2517 31.0049 9.60081C39.5472 3.86261 54.7377 0 68.7953 0C89.6126 0 103.484 6.83385 116.688 23.6213C135.091 46.9827 135.37 83.956 117.301 106.055C101.126 125.832 81.6274 131.459 68.1083 132.684C65.9355 132.889 63.7813 133 61.6272 133ZM68.7582 1.83845C55.0348 1.83845 40.2529 5.57107 31.9891 11.1236C20.9027 18.5702 13.6046 25.7941 6.80789 42.5073C-0.768761 61.1703 -2.64435 96.9366 23.2983 118.924C33.6605 127.707 51.1722 132.387 67.9039 130.864C81.0702 129.657 100.086 124.179 115.852 104.885C133.401 83.4175 133.104 47.4655 115.202 24.7355C102.407 8.4866 88.944 1.83845 68.7582 1.83845Z" fill="black"/>
<path d="M68.2384 9.32227C56.9291 9.32227 44.2643 12.4978 37.0404 17.5489C28.071 23.8256 21.6457 29.9724 15.6847 45.2371C11.4507 56.0635 10.225 68.357 11.5807 79.982C12.9363 91.6255 20.7543 105.85 29.7052 112.666C33.4378 115.507 37.6904 117.475 42.0358 118.961C65.1001 126.853 92.714 120.131 108.257 100.335C123.819 80.5391 124.153 51.2538 107.737 29.5638C96.8366 15.1905 85.2116 9.32227 68.2384 9.32227Z" fill="white"/>
<path d="M61.7202 123.139C55.0163 123.139 48.2567 122.062 41.7386 119.834C36.6875 118.107 32.5649 115.99 29.148 113.39C20.0114 106.445 12.0819 92.127 10.6706 80.0935C9.24066 67.9114 10.7263 55.4136 14.8303 44.9029C20.68 29.9353 26.9567 23.4728 36.5204 16.8061C43.6885 11.7921 56.4462 8.41235 68.2383 8.41235C85.4715 8.41235 97.505 14.5777 108.461 29.0253C116.465 39.5732 120.885 52.5909 120.904 65.6644C120.922 78.5707 116.688 91.087 108.981 100.911C97.8021 115.154 79.9933 123.139 61.7202 123.139ZM68.2383 10.2322C56.7805 10.2322 44.4498 13.4635 37.5603 18.2917C28.2937 24.7727 22.2027 31.0309 16.5202 45.5714C12.5276 55.8222 11.0791 68.0042 12.4719 79.8892C13.8089 91.3099 21.6084 105.386 30.2436 111.96C33.512 114.448 37.4489 116.454 42.3329 118.125C48.6653 120.298 55.2206 121.338 61.7202 121.338C79.4362 121.338 96.6879 113.594 107.533 99.7965C123.188 79.8706 122.965 51.2353 106.994 30.1395C96.2979 15.989 85.0629 10.2322 68.2383 10.2322Z" fill="black"/>
<path d="M50.9868 43.5472C47.1799 42.5629 43.3915 41.4302 39.6775 40.1302C40.2532 44.16 41.0517 48.0412 41.9431 52.2009C49.0926 58.0134 56.2608 63.8259 63.4103 69.6383C64.2088 70.2883 65.0445 70.9568 66.0472 71.1797C67.05 71.4211 68.2571 71.0683 68.7028 70.1397C69.1856 69.137 68.5913 67.967 67.9971 67.0199C62.8717 58.6819 57.3935 52.2195 50.9868 43.5472Z" fill="#ACD4F7"/>
<path d="M66.6783 72.164C66.3997 72.164 66.1026 72.1268 65.8427 72.0711C64.617 71.7926 63.6328 70.994 62.8528 70.3441L41.3856 52.9066C41.2185 52.7766 41.1071 52.5909 41.0699 52.3867C40.1043 47.9484 39.3429 44.1972 38.7858 40.2603C38.7487 39.9446 38.8601 39.6289 39.1015 39.4246C39.3429 39.2204 39.6772 39.1647 39.9743 39.2575C43.6512 40.5389 47.4395 41.6716 51.2093 42.6559C51.4136 42.7116 51.5993 42.823 51.7107 42.9901C53.6234 45.5714 55.4433 47.967 57.226 50.2697C61.3115 55.5993 65.1555 60.6319 68.7767 66.5186C69.2224 67.2429 70.2623 68.9327 69.5195 70.5112C68.981 71.6626 67.8111 72.164 66.6783 72.164ZM42.7598 51.6996L63.9856 68.9327C64.6913 69.5084 65.4341 70.1027 66.2512 70.2884C66.8454 70.4184 67.6254 70.2698 67.8668 69.7498C68.1454 69.1556 67.6625 68.2271 67.2168 67.5028C63.6513 61.6904 59.8259 56.695 55.7776 51.4024C54.0691 49.1554 52.3049 46.8527 50.4479 44.3458C47.2167 43.5101 43.9669 42.5444 40.81 41.4859C41.3114 44.7543 41.9613 48.0041 42.7598 51.6996Z" fill="black"/>
<path d="M66.7154 68.0599C66.4925 68.0599 66.2697 67.9856 66.1025 67.8184C65.7311 67.4842 65.7126 66.9085 66.0468 66.5371C75.0163 56.6949 84.2642 46.8712 93.5122 37.289C93.8651 36.9176 94.4407 36.9176 94.8121 37.2704C95.1835 37.6232 95.1835 38.1989 94.8307 38.5703C85.6013 48.1154 76.3719 57.9391 67.4025 67.7627C67.1982 67.967 66.9568 68.0599 66.7154 68.0599Z" fill="black"/>
<path d="M65.7867 61.7832C62.9454 61.9875 60.327 64.0302 59.4542 66.7415C58.9343 68.3199 59.0085 70.1212 59.8256 71.5697C60.8841 73.4453 63.094 74.5038 65.2481 74.4852C68.5351 74.4481 71.692 71.8111 71.9891 68.5428C72.3048 65.2558 69.445 61.9503 65.7867 61.7832Z" fill="white"/>
<path d="M65.1928 75.3767C62.6115 75.3767 60.1974 74.0582 59.0275 71.9969C58.1175 70.3813 57.9504 68.3757 58.5818 66.4444C59.566 63.3803 62.5001 61.0961 65.7128 60.8547C65.7499 60.8547 65.787 60.8547 65.8242 60.8547C67.8483 60.9476 69.7982 61.8947 71.1724 63.4731C72.4538 64.9402 73.0852 66.8158 72.918 68.5985C72.5652 72.2383 69.074 75.3395 65.2671 75.3767C65.23 75.3767 65.2114 75.3767 65.1928 75.3767ZM65.7871 62.6932C63.3544 62.8975 61.0702 64.6988 60.3088 67.0201C59.8446 68.4314 59.956 69.9727 60.606 71.1055C61.4416 72.5911 63.2986 73.5568 65.2299 73.5568C68.1455 73.5382 70.8196 71.1798 71.0795 68.4314C71.2095 67.15 70.7267 65.7758 69.7611 64.6802C68.7583 63.4917 67.2913 62.786 65.7871 62.6932Z" fill="black"/>
<path d="M66.5296 27.1682C66.0468 27.1682 65.6382 26.7968 65.6196 26.314L64.9697 14.819C64.9326 14.3176 65.3226 13.8905 65.8239 13.8533C66.3253 13.8348 66.7524 14.2062 66.7896 14.7076L67.4396 26.184C67.4767 26.6854 67.0867 27.1125 66.5853 27.1496C66.5668 27.1682 66.5482 27.1682 66.5296 27.1682Z" fill="black"/>
<path d="M66.8084 118.218C66.3256 118.218 65.917 117.828 65.8985 117.345C65.7685 114.448 65.4528 111.533 64.97 108.673C64.8771 108.172 65.2299 107.707 65.7128 107.615C66.2142 107.54 66.6784 107.875 66.7713 108.357C67.2727 111.291 67.5883 114.281 67.7183 117.253C67.7369 117.754 67.3469 118.181 66.8455 118.2C66.8269 118.218 66.827 118.218 66.8084 118.218Z" fill="black"/>
<path d="M106.307 65.2744C105.806 65.2744 105.397 64.8659 105.397 64.3645C105.397 63.8631 105.806 63.4545 106.307 63.436L116.354 63.3617C116.855 63.3617 117.264 63.7702 117.264 64.2716C117.264 64.773 116.855 65.1816 116.354 65.2001L106.307 65.2744C106.326 65.2744 106.326 65.2744 106.307 65.2744Z" fill="black"/>
<path d="M16.3156 69.8427C15.8513 69.8427 15.4614 69.4898 15.4057 69.0256C15.35 68.5242 15.7214 68.0785 16.2228 68.0228C19.3797 67.6885 22.5924 67.5585 25.7864 67.6514C26.2878 67.6699 26.6778 68.0971 26.6778 68.5985C26.6592 69.0999 26.2136 69.4898 25.7307 69.4898C22.6295 69.397 19.5097 69.5084 16.427 69.8427C16.3713 69.8427 16.3527 69.8427 16.3156 69.8427Z" fill="black"/>
<path d="M99.4544 34.6336C99.3801 34.6336 99.3058 34.615 99.2501 34.5593C99.1201 34.4479 99.1201 34.2622 99.2315 34.1322L102.853 30.0653C102.964 29.9353 103.15 29.9353 103.28 30.0467C103.41 30.1581 103.41 30.3438 103.298 30.4738L99.6772 34.5407C99.6215 34.5964 99.5286 34.6336 99.4544 34.6336Z" fill="black"/>
<path d="M106.363 49.7123C106.233 49.7123 106.122 49.638 106.084 49.508C106.029 49.3409 106.103 49.1738 106.27 49.1181L111.34 47.3168C111.507 47.261 111.674 47.3353 111.73 47.5025C111.786 47.6696 111.711 47.8367 111.544 47.8924L106.474 49.6937C106.437 49.7123 106.4 49.7123 106.363 49.7123Z" fill="black"/>
<path d="M84.0047 24.2898C83.9676 24.2898 83.949 24.2898 83.9119 24.2713C83.7447 24.2341 83.6519 24.0484 83.7076 23.8999C84.2647 21.9686 84.729 19.9816 85.0818 17.9945C85.1189 17.8274 85.2675 17.716 85.4346 17.7531C85.6018 17.7903 85.7132 17.9388 85.676 18.106C85.3046 20.1115 84.8404 22.1171 84.2833 24.067C84.2647 24.197 84.1347 24.2898 84.0047 24.2898Z" fill="black"/>
<path d="M101.887 99.3692C101.813 99.3692 101.739 99.3506 101.683 99.2949L96.8178 95.0423C96.6879 94.9309 96.6692 94.7452 96.7807 94.6152C96.8921 94.4852 97.0778 94.4852 97.2078 94.578L102.073 98.8306C102.203 98.942 102.222 99.1277 102.11 99.2577C102.055 99.332 101.962 99.3692 101.887 99.3692Z" fill="black"/>
<path d="M86.0655 111.997C85.9541 111.997 85.8613 111.941 85.8056 111.849C84.7471 109.973 83.7442 108.023 82.8529 106.073C82.7786 105.925 82.8529 105.739 83.0015 105.665C83.15 105.59 83.3357 105.665 83.41 105.813C84.3014 107.745 85.3041 109.676 86.3441 111.551C86.4184 111.7 86.3812 111.886 86.2327 111.96C86.1584 111.979 86.1027 111.997 86.0655 111.997Z" fill="black"/>
<path d="M111.748 82.6748C111.73 82.6748 111.711 82.6748 111.674 82.6748C109.743 82.2477 107.811 81.7091 105.936 81.0777C105.769 81.022 105.694 80.8549 105.75 80.6878C105.806 80.5206 105.973 80.4463 106.14 80.5021C107.997 81.1149 109.91 81.6534 111.822 82.0805C111.99 82.1177 112.082 82.2848 112.045 82.4519C112.027 82.5819 111.897 82.6748 111.748 82.6748Z" fill="black"/>
<path d="M30.0951 103.771C30.0208 103.771 29.9651 103.752 29.8908 103.696C29.7608 103.585 29.7423 103.399 29.8537 103.269L34.7748 97.3824C34.8862 97.2524 35.0719 97.2338 35.2019 97.3453C35.3319 97.4567 35.3505 97.6424 35.239 97.7724L30.3179 103.659C30.2622 103.733 30.1694 103.771 30.0951 103.771Z" fill="black"/>
<path d="M20.7725 88.4687C20.6611 88.4687 20.5497 88.3944 20.494 88.283C20.4197 88.1344 20.494 87.9487 20.6425 87.8744L26.5664 85.1446C26.715 85.0703 26.9007 85.1446 26.975 85.2932C27.0493 85.4417 26.975 85.6274 26.8264 85.7017L20.9025 88.4315C20.8468 88.4687 20.8097 88.4687 20.7725 88.4687Z" fill="black"/>
<path d="M46.8451 114.003C46.8265 114.003 46.7893 114.003 46.7708 113.984C46.6036 113.947 46.5108 113.78 46.5479 113.613C47.0865 111.607 47.7736 109.62 48.6278 107.726C48.7021 107.577 48.8692 107.503 49.0363 107.577C49.1849 107.652 49.2592 107.819 49.1849 107.986C48.3493 109.861 47.6622 111.811 47.1422 113.78C47.0865 113.91 46.975 114.003 46.8451 114.003Z" fill="black"/>
<path d="M33.8647 35.1719C33.809 35.1719 33.7533 35.1533 33.6976 35.1162L28.2936 31.6807C28.1451 31.5878 28.1079 31.4021 28.2008 31.2536C28.2936 31.105 28.4793 31.0679 28.6279 31.1607L34.0318 34.6148C34.1804 34.7076 34.2175 34.8933 34.1247 35.0419C34.0504 35.1348 33.9576 35.1719 33.8647 35.1719Z" fill="black"/>
<path d="M49.965 26.2954C49.8536 26.2954 49.7422 26.2212 49.6865 26.1097C48.758 24.067 47.6995 22.0429 46.5295 20.1115C46.4367 19.963 46.4924 19.7773 46.6409 19.6844C46.7895 19.5916 46.9752 19.6473 47.0681 19.7959C48.2566 21.7457 49.3151 23.7699 50.2622 25.8497C50.3364 25.9983 50.2622 26.184 50.1136 26.2583C50.0393 26.2769 50.0022 26.2954 49.965 26.2954Z" fill="black"/>
<path d="M26.0653 51.4394C26.0468 51.4394 26.0468 51.4394 26.0282 51.4394C23.9298 51.2351 21.8128 50.9009 19.7515 50.4366C19.5843 50.3995 19.4915 50.2323 19.5286 50.0652C19.5658 49.8981 19.7329 49.8052 19.9 49.8424C21.9427 50.3066 24.0226 50.6409 26.1025 50.8452C26.2696 50.8637 26.3996 51.0123 26.3811 51.1794C26.3625 51.328 26.2139 51.4394 26.0653 51.4394Z" fill="black"/>
<g opacity="0.1294">
<path d="M109.947 96.3981C108.406 95.581 107.44 97.0295 107.328 97.2152C106.53 98.1251 105.75 99.0722 104.859 99.8893C103.169 101.245 97.9505 104.42 94.905 106.723C91.8966 108.822 90.6153 109.082 87.6069 110.381C83.2615 112.628 79.9188 114.263 75.5177 115.414C75.0534 115.488 74.5891 115.581 74.1249 115.674C72.1564 116.045 69.2595 116.417 67.6996 116.695C63.8741 116.937 58.9902 116.844 55.109 116.38C50.6707 115.99 47.7551 115.915 43.0569 113.947C40.4942 112.926 33.9018 109.564 30.0949 107.095C27.1794 105.163 25.9166 103.975 23.2239 101.059C22.4439 100.391 21.8125 99.2765 20.6612 99.2765C19.1384 99.2208 18.2656 101.282 19.3984 102.322C20.8469 103.696 22.1097 105.256 23.5581 106.63C24.858 107.874 26.3065 108.933 27.755 109.991C27.9964 110.159 28.2378 110.307 28.4978 110.456C28.275 111.18 28.4607 112.053 29.2778 112.498C38.8786 117.494 49.1665 122.044 60.1415 122.415C66.2511 122.378 71.4879 121.319 78.0804 119.407C79.046 119.054 80.1602 118.998 81.0144 118.422C81.163 118.33 81.2744 118.2 81.3673 118.07C83.4843 117.642 85.5456 117.067 87.5326 116.175C89.9282 115.08 92.3608 114.04 94.5893 112.61C97.282 110.641 98.2476 109.973 100.569 108.023C100.829 107.726 100.922 107.392 100.94 107.057C103.169 105.609 105.471 104.272 107.533 102.582C108.796 101.431 109.705 100.186 110.04 99.7593C110.374 99.2765 110.857 98.8308 110.875 98.218C110.968 97.5123 110.56 96.7509 109.947 96.3981Z" fill="black"/>
</g>
</svg>
