<svg width="28" height="28" viewBox="0 0 28 28" fill="none" xmlns="http://www.w3.org/2000/svg">
<path d="M13.9999 4.375C11.5837 4.375 9.62492 6.33375 9.62492 8.75C9.62492 11.1662 11.5837 13.125 13.9999 13.125C16.4162 13.125 18.3749 11.1662 18.3749 8.75C18.3749 6.33375 16.4162 4.375 13.9999 4.375Z" fill="#6786F4"/>
<path d="M9.33325 15.4583C6.91701 15.4583 4.95825 17.4171 4.95825 19.8333V21.2197C4.95825 22.0984 5.59512 22.8477 6.4624 22.9893C11.4544 23.8043 16.5455 23.8043 21.5374 22.9893C22.4047 22.8477 23.0416 22.0984 23.0416 21.2197V19.8333C23.0416 17.4171 21.0828 15.4583 18.6666 15.4583H18.2689C18.0537 15.4583 17.8398 15.4924 17.6352 15.5592L16.6254 15.8889C14.9194 16.446 13.0804 16.446 11.3744 15.8889L10.3647 15.5592C10.1601 15.4924 9.94617 15.4583 9.73093 15.4583H9.33325Z" fill="#6786F4"/>
</svg>
