<svg width="58" height="50" viewBox="0 0 58 50" fill="none" xmlns="http://www.w3.org/2000/svg">
<path d="M49.6663 21.1247C48.9812 21.1247 48.3241 21.3968 47.8396 21.8813C47.3552 22.3658 47.083 23.0229 47.083 23.708V41.7913C47.083 42.4765 46.8108 43.1336 46.3264 43.618C45.8419 44.1025 45.1848 44.3747 44.4997 44.3747H8.33301C7.64787 44.3747 6.99078 44.1025 6.50632 43.618C6.02185 43.1336 5.74967 42.4765 5.74967 41.7913V21.1247C5.74967 20.4395 6.02185 19.7825 6.50632 19.298C6.99078 18.8135 7.64787 18.5413 8.33301 18.5413H13.4997C14.063 18.5707 14.6205 18.4149 15.087 18.0977C15.5534 17.7805 15.9033 17.3194 16.083 16.7847L17.478 12.548C17.6513 12.0349 17.9815 11.5892 18.4219 11.274C18.8623 10.9588 19.3906 10.7899 19.9322 10.7913H34.1663C34.8515 10.7913 35.5086 10.5192 35.993 10.0347C36.4775 9.55023 36.7497 8.89315 36.7497 8.20801C36.7497 7.52286 36.4775 6.86578 35.993 6.38132C35.5086 5.89685 34.8515 5.62467 34.1663 5.62467H19.803C18.1795 5.62771 16.598 6.14052 15.2816 7.09073C13.9652 8.04094 12.9804 9.38055 12.4663 10.9205L11.6397 13.5038H8.33301C6.27758 13.5038 4.30634 14.3204 2.85293 15.7738C1.39952 17.2272 0.583008 19.1984 0.583008 21.2538V41.9205C0.583008 43.9759 1.39952 45.9472 2.85293 47.4006C4.30634 48.854 6.27758 49.6705 8.33301 49.6705H44.4997C46.5551 49.6705 48.5263 48.854 49.9798 47.4006C51.4332 45.9472 52.2497 43.9759 52.2497 41.9205V23.8372C52.2672 23.4872 52.2133 23.1374 52.0914 22.8089C51.9694 22.4804 51.7819 22.1801 51.5403 21.9264C51.2986 21.6727 51.0079 21.4707 50.6857 21.3329C50.3636 21.1951 50.0167 21.1242 49.6663 21.1247ZM26.4163 18.5413C24.3726 18.5413 22.3748 19.1474 20.6755 20.2828C18.9761 21.4183 17.6517 23.0321 16.8696 24.9203C16.0875 26.8084 15.8828 28.8861 16.2816 30.8906C16.6803 32.8951 17.6644 34.7363 19.1096 36.1814C20.5547 37.6266 22.3959 38.6107 24.4004 39.0095C26.4049 39.4082 28.4826 39.2035 30.3707 38.4214C32.2589 37.6393 33.8728 36.3149 35.0082 34.6156C36.1436 32.9163 36.7497 30.9184 36.7497 28.8747C36.7497 26.1341 35.661 23.5058 33.7231 21.5679C31.7852 19.63 29.1569 18.5413 26.4163 18.5413ZM26.4163 34.0413C25.3945 34.0413 24.3956 33.7383 23.5459 33.1706C22.6962 32.6029 22.034 31.796 21.643 30.8519C21.2519 29.9078 21.1496 28.8689 21.349 27.8667C21.5483 26.8645 22.0404 25.9439 22.763 25.2213C23.4855 24.4987 24.4061 24.0066 25.4084 23.8073C26.4106 23.6079 27.4495 23.7102 28.3935 24.1013C29.3376 24.4923 30.1445 25.1546 30.7123 26.0042C31.28 26.8539 31.583 27.8528 31.583 28.8747C31.583 30.245 31.0387 31.5591 30.0697 32.5281C29.1008 33.497 27.7866 34.0413 26.4163 34.0413ZM54.833 5.62467H52.2497V3.04134C52.2497 2.3562 51.9775 1.69912 51.493 1.21465C51.0086 0.73018 50.3515 0.458008 49.6663 0.458008C48.9812 0.458008 48.3241 0.73018 47.8396 1.21465C47.3552 1.69912 47.083 2.3562 47.083 3.04134V5.62467H44.4997C43.8145 5.62467 43.1575 5.89685 42.673 6.38132C42.1885 6.86578 41.9163 7.52286 41.9163 8.20801C41.9163 8.89315 42.1885 9.55023 42.673 10.0347C43.1575 10.5192 43.8145 10.7913 44.4997 10.7913H47.083V13.3747C47.083 14.0598 47.3552 14.7169 47.8396 15.2014C48.3241 15.6858 48.9812 15.958 49.6663 15.958C50.3515 15.958 51.0086 15.6858 51.493 15.2014C51.9775 14.7169 52.2497 14.0598 52.2497 13.3747V10.7913H54.833C55.5182 10.7913 56.1752 10.5192 56.6597 10.0347C57.1442 9.55023 57.4163 8.89315 57.4163 8.20801C57.4163 7.52286 57.1442 6.86578 56.6597 6.38132C56.1752 5.89685 55.5182 5.62467 54.833 5.62467Z" fill="#777777"/>
</svg>
